PathFileType	4	(X/Y/Z)	/home/abdul/Desktop/myosuite/custom_workspace/IK/output/S1_12_2.trc
DataRate	CameraRate	NumFrames	NumMarkers	Units	OrigDataRate	OrigDataStartFrame	OrigNumFrames
200.0	200.0	39	3	mm	200.0	1	1578
Frame#	Time	V_Shoulder			V_Elbow			V_Wrist		
		X1	Y1	Z1	X2	Y2	Z2	X3	Y3	Z3

1	0.0	-202.53200718786908	467.74812671344563	363.6263010354887	-295.2827028294254	327.0492810129332	28.902806600250294	-129.62836975766868	118.77239581527928	87.55204669535149
2	0.005	-202.47609957366157	467.6661884156174	363.5266223690341	-295.1399747428895	327.2075669930699	28.697107399942716	-129.6083219797046	118.8093936354272	87.26122223800877
3	0.01	-202.4188456733135	467.58238061808515	363.4256444491912	-294.99512319350424	327.36885987960125	28.487448097979566	-129.5881071057136	118.84734877053435	86.96477767532747
4	0.015	-202.36025344872516	467.4967376464037	363.32347986972917	-294.84829997624917	327.53300250839163	28.274032515953046	-129.56774567030754	118.886221885478	86.66296004880684
5	0.02	-202.30033098532536	467.4092954315291	363.2202437794634	-294.6996616794364	327.6998298984126	28.057074372000546	-129.54725814821103	118.92597010029584	86.35602698305766
6	0.025	-202.23908640526943	467.3200913800262	363.11605351753764	-294.5493693007552	327.8691695512268	27.83679682298714	-129.5266648773133	118.96654698268517	86.04424601482332
7	0.03	-202.17652778410866	467.22916424366457	363.0110282376477	-294.39758785260426	328.0408417710748	27.6134319738071	-129.50598598320988	119.00790254936791	85.7278938887136
8	0.035	-202.11266307157905	467.1365539891485	362.9052885225156	-294.2444859583581	328.2146600046736	27.387220354895888	-129.48524130568762	119.04998327659408	85.40725582180981
9	0.04	-202.04750001711997	467.04230166870167	362.7989559899533	-294.0902354412045	328.39043119978504	27.158410369154275	-129.46445032758777	119.09273212002921	85.08262473940334
10	0.045	-201.98104610069677	466.94644929220726	362.69215289188065	-293.93501090718416	328.56795618155985	26.92725770960204	-129.44363210646063	119.13608854424307	84.75430048423809
11	0.05	-201.91330846946104	466.8490397015775	362.58500170769116	-293.77898932404025	328.7470300456098	26.69402474919875	-129.4228052093987	119.17998856198318	84.42258900173522
12	0.055	-201.8442938807366	466.7501164479975	362.4776247333764	-293.62234959746615	328.9274425667073	26.458979904393225	-129.40198765140767	119.22436478338213	84.08780150378769
13	0.06	-201.77400865177438	466.64972367265926	362.3701436678396	-293.465272146306	329.1089786219575	26.222396974089666	-129.3811968376432	119.26914647520944	83.75025361381964
14	0.065	-201.70245861666868	466.54790599156786	362.2626791978449	-293.30793847822883	329.291418627235	25.98455445584667	-129.36044950980852	119.31425963024034	83.4102644959119
15	0.07	-201.62964909077962	466.44470838497136	362.15535058305795	-293.1505307673609	329.4745389856288	25.745734841253956	-129.33976169697337	119.35962704677218	83.06815597089754
16	0.075	-201.5555848429501	466.34017609192347	362.04827524264647	-292.9932314353125	329.6581125465844	25.506223892559778	-129.31914867103688	119.40516841827849	82.72425162242885
17	0.08	-201.4802700757572	466.234354510458	361.941568344909	-292.8362227369928	329.84190907439074	25.26630990274813	-129.29862490702072	119.45080043314911	82.37887589611057
18	0.085	-201.40370841397876	466.1272891038121	361.83534240140597	-292.67968635255323	330.02569572461414	25.026282941388235	-129.27820404833867	119.496436884422	82.03235319487828
19	0.09	-201.32590290140524	466.01902531309497	361.7297068670658	-292.523802986749	330.2092375270404	24.786434088697387	-129.2578988771505	119.54198878937316	81.68500697387776
20	0.095	-201.24685600606924	465.9096084767602	361.62476774772966	-292.3687519769485	330.39229787365593	24.547054660371533	-129.23772128986792	119.58736451878923	81.33715883816816
21	0.1	-201.1665696339115	465.79908375719646	361.5206272165937	-292.21471091096555	330.5746390101672	24.308435425843815	-129.21768227784025	119.63246993570948	80.98912764662666
22	0.105	-201.08504515084815	465.6874960747095	361.4173832409929	-292.06185525582504	330.75602252953604	24.070865822729026	-129.19779191320958	119.67720854338668	80.64122862547532
23	0.11	-201.00228341314815	465.5748900491253	361.3151292209534	-291.91035799851034	330.93620986599365	23.834633170299714	-129.17805933988564	119.72148164218123	80.29377249488007
24	0.115	-200.91828480598042	465.4613099492014	361.2139536409204	-291.76038929967456	331.1149627879872	23.60002188491601	-129.15849276955356	119.76518849507015	79.94706461208487
25	0.12	-200.83304928993564	465.3467996499872	361.113939736041	-291.6121161612293	331.292043888516	23.36731270039519	-129.13909948259183	119.8082265014229	79.60140413454158
26	0.125	-200.7465764552803	465.23140259823407	361.0151651743554	-291.4657021086539	331.46721707131815	23.136781896356958	-129.1198858337433	119.85049137866815	79.25708320647647
27	0.13	-200.65886558365025	465.1151617859062	360.91770175621014	-291.3213068887966	331.64024803139444	22.908700537615115	-129.10085726234928	119.89187735145183	78.91438617229475
28	0.135	-200.56991571684827	464.99811973180425	360.82161513217346	-291.1790861838624	331.81090472837695	22.68333372770437	-129.08201830692724	119.9322773478655	78.57358882016729
29	0.14	-200.47972573236234	464.8803184712638	360.72696454068364	-291.03919134220763	331.97895785129384	22.46093987963188	-129.06337262384466	119.97158320230571	78.23495765906519
30	0.145	-200.3882944251843	464.76179955385396	360.63380256661594	-290.9017691264802	332.1441812733259	22.24177000692516	-129.04492300981667	120.0096858645106	77.89874923240956
31	0.15	-200.29562059546652	464.6426040489498	360.5421749218978	-290.76696147956284	332.3063524952118	22.026067038010666	-129.0266714279334	120.046475614308	77.56520947138361
32	0.155	-200.20170314152128	464.5227725590151	360.45212024924353	-290.63490530869416	332.4652530760249	21.814065156899783	-129.0086190369042	120.08184228160074	77.23457309081329
33	0.16	-200.10654115763256	464.4023452403864	360.3636699500161	-290.5057322880557	332.62066905012455	21.605989173081095	-128.99076622319055	120.11567547110923	76.90706303036069
34	0.165	-200.01013403612276	464.2813618313091	360.2768480371529	-290.379568680024	332.77239132917134	21.40205392341854	-128.9731126356877	120.14786479138817	76.58288994359063
35	0.17	-199.91248157308817	464.1598616869337	360.1916710140211	-290.2565351751994	332.9202160881934	21.202463708735092	-128.95565722260682	120.17830008763454	76.26225173726722
36	0.175	-199.813584077197	464.0378838209436	360.1081477799866	-290.13674675122934	333.06394513479535	21.00741176762064	-128.93839827020392	120.20687167780517	75.94533316301323
37	0.18	-199.71344248092154	463.9154669534443	360.02627956339757	-290.02031255035445	333.2033862607144	20.817079789841188	-128.92133344300163	120.2334705915666	75.63230546322244
38	0.185	-199.61205845356315	463.7926495647089	359.9460598825969	-289.90733577550895	333.33835357504654	20.631637471545503	-128.9044598251507	120.25798881160574	75.32332607285386
39	0.19	-199.50943451541443	463.6694699543394	359.86747453548196	-289.7979136047162	333.4686678185906	20.45124211426511	-128.88777396258502	120.28031951683664	75.01853837846076
